<svg xmlns="http://www.w3.org/2000/svg" xmlns:xlink="http://www.w3.org/1999/xlink" width="500" zoomAndPan="magnify" viewBox="0 0 375 374.999991" height="500" preserveAspectRatio="xMidYMid meet" version="1.0"><defs><g/></defs><rect x="-37.5" width="450" fill="#ffffff" y="-37.499999" height="449.999989" fill-opacity="1"/><rect x="-37.5" width="450" fill="#ffffff" y="-37.499999" height="449.999989" fill-opacity="1"/><rect x="-37.5" width="450" fill="#ffffff" y="-37.499999" height="449.999989" fill-opacity="1"/><g fill="#0056d2" fill-opacity="1"><g transform="translate(9.703804, 222.062521)"><g><path d="M 22.335938 1.609375 C 33.671875 1.609375 41.796875 -4.230469 41.796875 -12.691406 C 41.796875 -19.460938 37.3125 -23.183594 26.90625 -25.210938 L 20.222656 -26.398438 C 14.636719 -27.582031 12.269531 -29.105469 12.269531 -31.8125 C 12.351562 -34.941406 15.90625 -37.734375 20.644531 -37.734375 C 26.058594 -37.734375 30.035156 -34.859375 30.542969 -30.710938 L 39.003906 -32.320312 C 37.648438 -39.597656 30.457031 -44.585938 20.898438 -44.585938 C 10.828125 -44.585938 3.808594 -39.171875 3.722656 -31.050781 C 3.722656 -24.453125 7.699219 -20.8125 16.835938 -19.121094 L 23.4375 -17.9375 C 30.121094 -16.667969 33.082031 -14.890625 33.082031 -11.929688 C 33.082031 -8.207031 28.511719 -5.585938 22.675781 -5.585938 C 15.90625 -5.585938 10.746094 -9.136719 10.320312 -14.46875 L 1.609375 -13.199219 C 2.285156 -3.808594 11.167969 1.609375 22.335938 1.609375 Z M 22.335938 1.609375 "/></g></g></g><g fill="#0056d2" fill-opacity="1"><g transform="translate(53.105414, 222.062521)"><g><path d="M 3.808594 0 L 13.367188 0 L 13.367188 -23.773438 C 13.367188 -31.136719 17.34375 -36.210938 24.199219 -36.210938 C 29.695312 -36.210938 32.910156 -32.828125 32.910156 -27.160156 L 32.910156 0 L 42.386719 0 L 42.386719 -23.773438 C 42.386719 -31.136719 46.449219 -36.210938 53.21875 -36.210938 C 58.71875 -36.210938 61.933594 -32.828125 61.933594 -27.160156 L 61.933594 0 L 71.492188 0 L 71.492188 -28.679688 C 71.492188 -38.664062 66.164062 -44.503906 57.277344 -44.503906 C 50.765625 -44.503906 44.925781 -41.625 41.371094 -35.449219 L 41.289062 -35.449219 C 39.257812 -41.289062 34.773438 -44.503906 28.003906 -44.503906 C 21.152344 -44.503906 15.566406 -41.289062 13.03125 -35.957031 L 12.945312 -35.957031 L 11.675781 -43.066406 L 3.808594 -43.066406 Z M 3.808594 0 "/></g></g></g><g fill="#0056d2" fill-opacity="1"><g transform="translate(128.06414, 222.062521)"><g><path d="M 17.511719 1.523438 C 24.957031 1.523438 30.796875 -1.945312 33.671875 -7.277344 L 33.757812 -7.277344 L 33.925781 -5.5 C 34.265625 -1.609375 37.648438 1.523438 42.304688 1.523438 C 45.941406 1.523438 49.917969 -0.0859375 52.117188 -2.707031 L 48.816406 -8.121094 C 47.886719 -6.769531 46.535156 -5.835938 45.433594 -5.835938 C 43.996094 -5.835938 43.148438 -7.023438 43.148438 -8.800781 L 43.148438 -28.175781 C 43.148438 -38.328125 35.195312 -44.757812 23.4375 -44.757812 C 11.761719 -44.757812 3.382812 -38.15625 2.621094 -30.203125 L 11.675781 -28.003906 C 12.015625 -32.742188 16.753906 -37.140625 23.519531 -37.140625 C 29.613281 -37.140625 33.757812 -34.179688 33.757812 -29.613281 C 33.757812 -27.835938 32.402344 -26.652344 30.375 -26.398438 L 20.8125 -25.296875 C 7.359375 -23.691406 1.523438 -18.273438 1.523438 -11.167969 C 1.523438 -3.554688 8.121094 1.523438 17.511719 1.523438 Z M 20.390625 -5.835938 C 14.976562 -5.835938 11 -8.207031 11 -11.929688 C 11 -15.230469 13.875 -18.105469 22.675781 -19.121094 L 33.589844 -20.390625 L 33.589844 -18.019531 C 33.589844 -10.828125 28.003906 -5.835938 20.390625 -5.835938 Z M 20.390625 -5.835938 "/></g></g></g><g fill="#0056d2" fill-opacity="1"><g transform="translate(180.17991, 222.062521)"><g><path d="M 25.210938 -44.585938 C 19.796875 -44.585938 15.3125 -41.371094 12.945312 -36.128906 L 12.859375 -36.128906 L 11.589844 -43.066406 L 3.808594 -43.066406 L 3.808594 0 L 13.367188 0 L 13.367188 -23.519531 C 13.367188 -31.8125 17.007812 -36.804688 22.929688 -36.804688 C 27.160156 -36.804688 29.949219 -33.671875 30.457031 -28.003906 L 38.582031 -30.375 C 37.648438 -39.425781 32.574219 -44.585938 25.210938 -44.585938 Z M 25.210938 -44.585938 "/></g></g></g><g fill="#0056d2" fill-opacity="1"><g transform="translate(220.281998, 222.062521)"><g><path d="M 24.027344 1.691406 C 30.796875 1.691406 37.226562 -2.113281 39.34375 -8.375 L 34.6875 -13.367188 C 33.25 -8.714844 29.867188 -6.175781 25.71875 -6.175781 C 21.488281 -6.175781 18.527344 -9.390625 18.527344 -14.128906 L 18.445312 -35.535156 L 36.71875 -35.535156 L 36.71875 -43.066406 L 18.445312 -43.066406 L 18.527344 -57.449219 L 8.96875 -55.332031 L 8.96875 -43.066406 L 0.167969 -43.066406 L 0.167969 -35.535156 L 8.96875 -35.535156 L 8.96875 -12.859375 C 8.96875 -4.0625 14.890625 1.691406 24.027344 1.691406 Z M 24.027344 1.691406 "/></g></g></g><g fill="#0056d2" fill-opacity="1"><g transform="translate(260.214876, 222.062521)"><g><path d="M 9.136719 -50.171875 C 12.691406 -50.171875 15.3125 -52.539062 15.3125 -56.179688 C 15.3125 -59.730469 12.691406 -62.101562 9.136719 -62.101562 C 5.414062 -62.101562 2.960938 -59.730469 2.960938 -56.179688 C 2.960938 -52.539062 5.414062 -50.171875 9.136719 -50.171875 Z M 4.316406 0 L 13.789062 0 L 13.789062 -43.066406 L 4.316406 -43.066406 Z M 4.316406 0 "/></g></g></g><g fill="#0056d2" fill-opacity="1"><g transform="translate(278.489251, 222.062521)"><g><path d="M 8.96875 0 L 18.445312 0 L 18.445312 -35.535156 L 35.535156 -35.535156 L 35.535156 -43.066406 L 18.445312 -43.066406 L 18.445312 -48.054688 C 18.445312 -52.878906 21.320312 -56.007812 25.550781 -56.007812 C 29.273438 -56.007812 32.65625 -53.300781 33.925781 -49.578125 L 38.917969 -54.65625 C 36.632812 -60.070312 31.050781 -63.878906 24.113281 -63.878906 C 14.890625 -63.878906 8.882812 -58.039062 8.882812 -49.15625 L 8.882812 -43.066406 L 0.167969 -43.066406 L 0.167969 -35.535156 L 8.882812 -35.535156 Z M 8.96875 0 "/></g></g></g><g fill="#0056d2" fill-opacity="1"><g transform="translate(317.406861, 222.062521)"><g><path d="M 20.558594 19.460938 C 34.859375 19.460938 44.078125 11.421875 44.078125 -1.863281 L 43.996094 -43.066406 L 34.519531 -43.066406 L 34.519531 -17.34375 C 34.519531 -10.40625 29.273438 -5.5 22.929688 -5.5 C 16.753906 -5.5 13.03125 -9.984375 13.03125 -16.5 L 13.03125 -43.066406 L 3.46875 -43.066406 L 3.46875 -15.398438 C 3.46875 -4.824219 9.984375 2.621094 20.222656 2.621094 C 26.144531 2.621094 31.644531 -0.507812 34.519531 -5.753906 L 34.605469 -5.753906 L 34.605469 -2.03125 C 34.605469 6.261719 28.933594 11.335938 19.96875 11.335938 C 12.945312 11.335938 7.105469 8.121094 4.0625 3.382812 L -1.101562 9.8125 C 2.707031 15.652344 10.660156 19.460938 20.558594 19.460938 Z M 20.558594 19.460938 "/></g></g></g></svg>