<svg xmlns="http://www.w3.org/2000/svg" xmlns:xlink="http://www.w3.org/1999/xlink" width="500" zoomAndPan="magnify" viewBox="0 0 375 374.999991" height="500" preserveAspectRatio="xMidYMid meet" version="1.0"><defs><g/></defs><rect x="-37.5" width="450" fill="#ffffff" y="-37.499999" height="449.999989" fill-opacity="1"/><rect x="-37.5" width="450" fill="#ffffff" y="-37.499999" height="449.999989" fill-opacity="1"/><rect x="-37.5" width="450" fill="#ffffff" y="-37.499999" height="449.999989" fill-opacity="1"/><g fill="#0056d2" fill-opacity="1"><g transform="translate(14.470316, 215.0169)"><g><path d="M 20.863281 1.21875 C 33.046875 1.21875 41.273438 -3.882812 41.273438 -12.335938 C 41.273438 -19.1875 36.929688 -22.84375 26.652344 -24.519531 L 21.167969 -25.433594 C 16.90625 -26.117188 15.078125 -27.109375 15.078125 -28.632812 C 15.078125 -30.535156 17.4375 -31.753906 20.40625 -31.753906 C 23.910156 -31.753906 26.5 -30.152344 26.726562 -27.109375 L 38.910156 -28.554688 C 38.226562 -35.789062 30.761719 -40.585938 20.941406 -40.585938 C 10.128906 -40.585938 2.816406 -35.710938 2.816406 -27.109375 C 2.816406 -20.332031 6.625 -16.980469 15.609375 -15.761719 L 21.246094 -15 C 26.195312 -14.316406 28.25 -13.171875 28.25 -11.269531 C 28.25 -9.214844 25.355469 -7.84375 21.929688 -7.84375 C 17.589844 -7.84375 14.164062 -9.976562 13.78125 -13.476562 L 1.21875 -12.410156 C 1.75 -3.351562 9.898438 1.21875 20.863281 1.21875 Z M 20.863281 1.21875 "/></g></g></g><g fill="#0056d2" fill-opacity="1"><g transform="translate(56.955227, 215.0169)"><g><path d="M 2.664062 0 L 17.363281 0 L 17.363281 -21.320312 C 17.363281 -25.355469 19.417969 -27.945312 22.84375 -27.945312 C 25.8125 -27.945312 27.566406 -25.964844 27.566406 -22.617188 L 27.566406 0 L 42.335938 0 L 42.335938 -21.320312 C 42.335938 -25.355469 44.316406 -27.945312 47.820312 -27.945312 C 50.714844 -27.945312 52.464844 -25.964844 52.464844 -22.617188 L 52.464844 0 L 67.238281 0 L 67.238281 -26.421875 C 67.238281 -35.105469 62.898438 -40.28125 55.511719 -40.28125 C 49.496094 -40.28125 44.394531 -37.234375 41.726562 -31.296875 L 41.652344 -31.296875 C 40.054688 -37.234375 36.09375 -40.28125 30 -40.28125 C 24.0625 -40.28125 18.808594 -36.929688 16.828125 -31.371094 L 16.753906 -31.371094 L 14.316406 -39.292969 L 2.664062 -39.292969 Z M 2.664062 0 "/></g></g></g><g fill="#0056d2" fill-opacity="1"><g transform="translate(126.773609, 215.0169)"><g><path d="M 14.316406 0.914062 C 20.710938 0.914062 25.738281 -2.359375 28.097656 -6.929688 L 28.175781 -6.929688 L 28.328125 -5.789062 C 29.089844 -2.132812 33.429688 0.914062 38.757812 0.914062 C 42.640625 0.914062 47.058594 -0.152344 49.875 -2.511719 L 47.363281 -9.898438 C 46.527344 -9.0625 45.230469 -8.527344 44.316406 -8.527344 C 43.097656 -8.527344 42.335938 -9.59375 42.335938 -11.421875 L 42.335938 -24.136719 C 42.335938 -34.570312 34.800781 -40.816406 22.464844 -40.816406 C 10.660156 -40.816406 3.046875 -34.953125 2.4375 -25.964844 L 16.90625 -24.367188 C 17.4375 -27.945312 19.644531 -30.609375 23.074219 -30.609375 C 25.890625 -30.609375 27.871094 -28.9375 27.871094 -26.269531 C 27.871094 -24.746094 26.652344 -23.679688 24.898438 -23.53125 L 18.425781 -22.84375 C 7.234375 -21.777344 0.914062 -16.980469 0.914062 -9.898438 C 0.914062 -3.351562 6.472656 0.914062 14.316406 0.914062 Z M 20.710938 -8.527344 C 17.816406 -8.527344 15.761719 -9.976562 15.761719 -11.953125 C 15.761719 -14.011719 17.589844 -15.535156 22.617188 -16.066406 L 27.640625 -16.601562 L 27.640625 -15.609375 C 27.640625 -11.574219 24.746094 -8.527344 20.710938 -8.527344 Z M 20.710938 -8.527344 "/></g></g></g><g fill="#0056d2" fill-opacity="1"><g transform="translate(176.643886, 215.0169)"><g><path d="M 27.566406 -40.28125 C 22.921875 -40.28125 18.808594 -37.539062 16.753906 -32.820312 L 16.675781 -32.820312 L 14.316406 -39.292969 L 2.664062 -39.292969 L 2.664062 0 L 17.363281 0 L 17.363281 -21.320312 C 17.363281 -26.574219 19.417969 -29.695312 22.769531 -29.695312 C 25.660156 -29.695312 27.566406 -27.109375 27.871094 -22.617188 L 40.207031 -25.8125 C 39.292969 -34.953125 34.570312 -40.28125 27.566406 -40.28125 Z M 27.566406 -40.28125 "/></g></g></g><g fill="#0056d2" fill-opacity="1"><g transform="translate(217.758311, 215.0169)"><g><path d="M 24.0625 1.523438 C 29.242188 1.523438 34.800781 -0.378906 38.378906 -3.578125 L 35.558594 -13.707031 C 33.125 -11.269531 30.992188 -10.128906 27.792969 -10.128906 C 24.671875 -10.128906 22.007812 -12.410156 22.007812 -16.753906 L 22.007812 -28.328125 L 36.550781 -28.328125 L 36.550781 -39.292969 L 22.007812 -39.292969 L 22.007812 -52.847656 L 7.308594 -49.570312 L 7.308594 -39.292969 L 0.609375 -39.292969 L 0.609375 -28.328125 L 7.234375 -28.328125 L 7.308594 -14.238281 C 7.308594 -4.492188 13.628906 1.523438 24.0625 1.523438 Z M 24.0625 1.523438 "/></g></g></g><g fill="#0056d2" fill-opacity="1"><g transform="translate(257.426115, 215.0169)"><g><path d="M 10.128906 -43.402344 C 15.152344 -43.402344 18.425781 -46.601562 18.425781 -51.398438 C 18.425781 -56.195312 15.152344 -59.394531 10.128906 -59.394531 C 5.179688 -59.394531 1.902344 -56.195312 1.902344 -51.398438 C 1.902344 -46.601562 5.179688 -43.402344 10.128906 -43.402344 Z M 2.742188 0 L 17.515625 0 L 17.515625 -39.292969 L 2.742188 -39.292969 Z M 2.742188 0 "/></g></g></g><g fill="#0056d2" fill-opacity="1"><g transform="translate(277.754906, 215.0169)"><g><path d="M 7.234375 0 L 22.007812 0 L 21.929688 -28.328125 L 34.570312 -28.328125 L 34.570312 -39.292969 L 21.929688 -39.292969 L 21.929688 -41.273438 C 21.929688 -44.546875 23.984375 -46.601562 27.109375 -46.601562 C 29.695312 -46.601562 32.363281 -45.308594 34.265625 -43.402344 L 37.160156 -53.378906 C 33.808594 -56.347656 28.707031 -58.253906 23.605469 -58.253906 C 13.402344 -58.253906 7.234375 -52.085938 7.234375 -42.03125 L 7.234375 -39.292969 L 0.53125 -39.292969 L 0.53125 -28.328125 L 7.234375 -28.328125 Z M 7.234375 0 "/></g></g></g><g fill="#0056d2" fill-opacity="1"><g transform="translate(314.910164, 215.0169)"><g><path d="M 18.273438 17.515625 C 33.125 17.515625 42.945312 9.214844 42.945312 -3.65625 L 42.945312 -39.292969 L 28.175781 -39.292969 L 28.175781 -17.4375 C 28.175781 -13.476562 25.738281 -10.964844 22.386719 -10.964844 C 19.265625 -10.964844 17.4375 -13.402344 17.4375 -17.058594 L 17.4375 -39.292969 L 2.742188 -39.292969 L 2.742188 -13.78125 C 2.742188 -4.875 7.765625 0.683594 15.914062 0.683594 C 21.246094 0.683594 25.8125 -2.4375 28.097656 -7.691406 L 28.175781 -7.691406 L 28.175781 -4.265625 C 28.175781 1.675781 23.757812 5.484375 16.828125 5.484375 C 11.953125 5.484375 6.546875 3.65625 2.894531 0.761719 L -0.914062 11.953125 C 3.351562 15.304688 10.890625 17.515625 18.273438 17.515625 Z M 18.273438 17.515625 "/></g></g></g></svg>